# Blender v2.80 (sub 75) OBJ File: 'Pickups.blend'
# www.blender.org
mtllib SoftBlock.mtl
o SoftBlock
v 0.355410 1.009292 -0.254684
v 0.263492 1.009292 -0.346602
v 0.348414 1.009292 -0.289860
v 0.328488 1.009292 -0.319680
v 0.298668 1.009292 -0.339605
v -0.252671 1.009292 -0.346602
v -0.344589 1.009292 -0.254684
v -0.287847 1.009292 -0.339605
v -0.317667 1.009292 -0.319680
v -0.337593 1.009292 -0.289860
v -0.344589 0.869292 -0.254684
v -0.252671 0.869292 -0.346602
v -0.337593 0.869292 -0.289860
v -0.317667 0.869292 -0.319680
v -0.287847 0.869292 -0.339605
v -0.252671 0.869292 0.353398
v -0.344589 0.869292 0.261480
v -0.287847 0.869292 0.346401
v -0.317667 0.869292 0.326476
v -0.337593 0.869292 0.296655
v 0.263492 0.869292 -0.346602
v 0.355410 0.869292 -0.254684
v 0.298668 0.869292 -0.339605
v 0.328488 0.869292 -0.319680
v 0.348414 0.869292 -0.289860
v -0.344589 1.009292 0.261480
v -0.252671 1.009292 0.353398
v -0.337593 1.009292 0.296655
v -0.317667 1.009292 0.326476
v -0.287847 1.009292 0.346401
v 0.248403 1.009292 0.353398
v 0.355410 1.009292 0.246391
v 0.289353 1.009292 0.345252
v 0.324069 1.009292 0.322056
v 0.347265 1.009292 0.287341
v 0.355410 0.869292 0.246391
v 0.248403 0.869292 0.353398
v 0.347265 0.869292 0.287341
v 0.324069 0.869292 0.322056
v 0.289353 0.869292 0.345252
v 0.289261 1.009292 -0.248169
v 0.256977 1.009292 -0.280452
v 0.286102 1.009292 -0.264049
v 0.280797 1.009292 -0.271989
v 0.272857 1.009292 -0.277293
v -0.246156 1.009292 -0.280452
v -0.278439 1.009292 -0.248169
v -0.262036 1.009292 -0.277293
v -0.269976 1.009292 -0.271989
v -0.275281 1.009292 -0.264049
v -0.278439 0.869292 -0.248169
v -0.246156 0.869292 -0.280452
v -0.275281 0.869292 -0.264049
v -0.269976 0.869292 -0.271989
v -0.262036 0.869292 -0.277293
v -0.246156 0.869292 0.287248
v -0.278439 0.869292 0.254964
v -0.262036 0.869292 0.284089
v -0.269976 0.869292 0.278784
v -0.275281 0.869292 0.270845
v 0.256977 0.869292 -0.280452
v 0.289261 0.869292 -0.248169
v 0.272857 0.869292 -0.277293
v 0.280797 0.869292 -0.271989
v 0.286102 0.869292 -0.264049
v -0.278439 1.009292 0.254964
v -0.246156 1.009292 0.287248
v -0.275281 1.009292 0.270845
v -0.269976 1.009292 0.278784
v -0.262036 1.009292 0.284089
v 0.241888 1.009292 0.287248
v 0.289261 1.009292 0.239875
v 0.263543 1.009292 0.282940
v 0.276377 1.009292 0.274365
v 0.284953 1.009292 0.261530
v 0.289261 0.869292 0.239875
v 0.241888 0.869292 0.287248
v 0.284953 0.869292 0.261530
v 0.276377 0.869292 0.274365
v 0.263543 0.869292 0.282940
v 0.317934 0.929549 -0.187166
v 0.317934 0.929549 0.183549
v 0.317934 0.949036 -0.187166
v 0.317934 0.949036 0.183549
v 0.008757 0.943440 -0.187166
v 0.008757 0.943440 0.183549
v 0.008757 0.935145 -0.187166
v 0.008757 0.935145 0.183549
v 0.317934 0.949036 0.121763
v 0.317934 0.949036 0.059977
v 0.317934 0.949036 -0.001809
v 0.317934 0.949036 -0.063595
v 0.317934 0.949036 -0.125381
v 0.317934 0.929549 0.121763
v 0.317934 0.929549 0.059977
v 0.317934 0.929549 -0.001809
v 0.317934 0.929549 -0.063595
v 0.317934 0.929549 -0.125381
v 0.008757 0.935145 0.121763
v 0.008757 0.935145 0.059977
v 0.008757 0.935145 -0.001809
v 0.008757 0.935145 -0.063595
v 0.008757 0.935145 -0.125381
v 0.008757 0.943440 0.121763
v 0.008757 0.943440 0.059977
v 0.008757 0.943440 -0.001809
v 0.008757 0.943440 -0.063595
v 0.008757 0.943440 -0.125381
v 0.154145 0.949036 0.183549
v 0.154145 0.929549 -0.187166
v 0.154145 0.949036 -0.187166
v 0.154145 0.929549 0.183549
v 0.108599 0.929549 -0.125381
v 0.170698 0.929549 -0.063595
v 0.128744 0.929549 -0.001809
v 0.216001 0.929549 0.059977
v 0.096337 0.929549 0.121763
v 0.108599 0.949036 -0.125381
v 0.170698 0.949036 -0.063595
v 0.128744 0.949036 -0.001809
v 0.216001 0.949036 0.059977
v 0.096337 0.949036 0.121763
v -0.319898 0.929549 -0.187166
v -0.319898 0.929549 0.183549
v -0.319898 0.949036 -0.187166
v -0.319898 0.949036 0.183549
v -0.043982 0.944155 -0.187166
v -0.043982 0.944155 0.183549
v -0.043982 0.934430 -0.187166
v -0.043982 0.934430 0.183549
v -0.319898 0.929549 -0.125381
v -0.319898 0.929549 -0.063595
v -0.319898 0.929549 -0.001809
v -0.319898 0.929549 0.059977
v -0.319898 0.929549 0.121763
v -0.319898 0.949036 0.121763
v -0.319898 0.949036 0.059977
v -0.319898 0.949036 -0.001809
v -0.319898 0.949036 -0.063595
v -0.319898 0.949036 -0.125381
v -0.043982 0.934430 0.121763
v -0.043982 0.934430 0.059977
v -0.043982 0.934430 -0.001809
v -0.043982 0.934430 -0.063595
v -0.043982 0.934430 -0.125381
v -0.043982 0.944155 0.121763
v -0.043982 0.944155 0.059977
v -0.043982 0.944155 -0.001809
v -0.043982 0.944155 -0.063595
v -0.043982 0.944155 -0.125381
v -0.133471 0.949036 -0.187166
v -0.133471 0.929549 0.183549
v -0.133471 0.949036 0.183549
v -0.133471 0.929549 -0.187166
v -0.185312 0.949036 -0.125381
v -0.109709 0.949036 -0.063595
v -0.162382 0.949036 -0.001809
v -0.106945 0.949036 0.059977
v -0.199269 0.949036 0.121763
v -0.185312 0.929549 -0.125381
v -0.109709 0.929549 -0.063595
v -0.162382 0.929549 -0.001809
v -0.106945 0.929549 0.059977
v -0.199269 0.929549 0.121763
vt 0.855656 0.787467
vt 0.855656 0.813061
vt 0.847711 0.813061
vt 0.847711 0.787467
vt 0.823874 0.813832
vt 0.823874 0.787467
vt 0.831820 0.787467
vt 0.831820 0.813832
vt 0.831820 0.813832
vt 0.839765 0.813832
vt 0.839765 0.815628
vt 0.831820 0.815628
vt 0.839765 0.817151
vt 0.831820 0.817151
vt 0.823874 0.817151
vt 0.823874 0.815628
vt 0.831820 0.815628
vt 0.839765 0.813606
vt 0.847711 0.813606
vt 0.847711 0.815403
vt 0.839765 0.815403
vt 0.847711 0.816926
vt 0.839765 0.816926
vt 0.823874 0.784147
vt 0.831820 0.784147
vt 0.831820 0.785670
vt 0.823874 0.785670
vt 0.839765 0.787467
vt 0.831820 0.787467
vt 0.831820 0.785670
vt 0.839765 0.785670
vt 0.831820 0.784147
vt 0.839765 0.784147
vt 0.847711 0.784147
vt 0.855656 0.784147
vt 0.855656 0.785670
vt 0.847711 0.785670
vt 0.847711 0.788012
vt 0.839765 0.788012
vt 0.839765 0.785921
vt 0.847711 0.785921
vt 0.839765 0.784147
vt 0.847711 0.784147
vt 0.855656 0.816926
vt 0.847711 0.816926
vt 0.847711 0.815153
vt 0.855656 0.815153
vt 0.839765 0.843841
vt 0.831820 0.843841
vt 0.831820 0.818913
vt 0.839765 0.818913
vt 0.831820 0.844067
vt 0.823874 0.844067
vt 0.823874 0.818368
vt 0.831820 0.818368
vt 0.839765 0.818142
vt 0.839765 0.817331
vt 0.847711 0.817331
vt 0.847711 0.818142
vt 0.839765 0.816926
vt 0.847711 0.816926
vt 0.823874 0.845284
vt 0.823874 0.844878
vt 0.831820 0.844878
vt 0.831820 0.845284
vt 0.855656 0.843616
vt 0.855656 0.844427
vt 0.847711 0.844427
vt 0.847711 0.843616
vt 0.855656 0.844832
vt 0.847711 0.844832
vt 0.831820 0.817151
vt 0.831820 0.817557
vt 0.823874 0.817557
vt 0.823874 0.817151
vt 0.847711 0.843841
vt 0.847711 0.844652
vt 0.839765 0.844652
vt 0.839765 0.843841
vt 0.847711 0.845058
vt 0.839765 0.845058
vt 0.831820 0.845058
vt 0.831820 0.844652
vt 0.839765 0.844652
vt 0.847711 0.818687
vt 0.847711 0.817581
vt 0.855656 0.817581
vt 0.855656 0.818687
vt 0.847711 0.816926
vt 0.855656 0.816926
vt 0.839765 0.817151
vt 0.839765 0.817807
vt 0.831820 0.817807
vt 0.831820 0.817151
vt 0.823874 0.815207
vt 0.823477 0.817003
vt 0.819941 0.815685
vt 0.820120 0.814874
vt 0.823477 0.822800
vt 0.823874 0.824597
vt 0.820120 0.824929
vt 0.819941 0.824118
vt 0.822347 0.818527
vt 0.819640 0.816091
vt 0.822347 0.821277
vt 0.819640 0.823713
vt 0.820654 0.819544
vt 0.819189 0.816362
vt 0.820654 0.820259
vt 0.819189 0.823442
vt 0.818658 0.819902
vt 0.818288 0.816523
vt 0.818658 0.819902
vt 0.818288 0.823281
vt 0.784147 0.824597
vt 0.784544 0.822800
vt 0.788081 0.824118
vt 0.787902 0.824929
vt 0.784544 0.817003
vt 0.784147 0.815207
vt 0.787902 0.814874
vt 0.788081 0.815685
vt 0.785675 0.821277
vt 0.788382 0.823713
vt 0.785675 0.818527
vt 0.788382 0.816091
vt 0.787368 0.820259
vt 0.788832 0.823442
vt 0.787368 0.819544
vt 0.788832 0.816362
vt 0.789364 0.819902
vt 0.789734 0.823281
vt 0.789364 0.819902
vt 0.789734 0.816523
vt 0.823874 0.850961
vt 0.823477 0.852758
vt 0.819941 0.851440
vt 0.820120 0.850628
vt 0.823477 0.787046
vt 0.823874 0.788842
vt 0.820120 0.789175
vt 0.819941 0.788364
vt 0.822347 0.854281
vt 0.819640 0.851845
vt 0.822347 0.785522
vt 0.819640 0.787958
vt 0.820654 0.855299
vt 0.819189 0.852116
vt 0.820654 0.784505
vt 0.819189 0.787687
vt 0.818658 0.855656
vt 0.818288 0.852277
vt 0.818658 0.784147
vt 0.818288 0.787526
vt 0.784147 0.789613
vt 0.784610 0.787521
vt 0.788146 0.788840
vt 0.787902 0.789946
vt 0.784610 0.852282
vt 0.784147 0.850191
vt 0.787902 0.849858
vt 0.788146 0.850964
vt 0.785926 0.785748
vt 0.788633 0.788184
vt 0.785926 0.854055
vt 0.788633 0.851619
vt 0.787896 0.784563
vt 0.789361 0.787746
vt 0.787896 0.855240
vt 0.789361 0.852057
vt 0.790220 0.784147
vt 0.790590 0.787526
vt 0.790220 0.855656
vt 0.790590 0.852277
vt 0.657702 0.819258
vt 0.670165 0.805349
vt 0.705474 0.805349
vt 0.705474 0.819258
vt 0.713877 0.874894
vt 0.713877 0.888804
vt 0.709675 0.888804
vt 0.709675 0.874894
vt 0.603141 0.918165
vt 0.603141 0.888804
vt 0.607342 0.888804
vt 0.607342 0.918165
vt 0.866751 0.703021
vt 0.867966 0.688154
vt 0.869767 0.688154
vt 0.870982 0.703021
vt 0.801339 0.551539
vt 0.787865 0.531319
vt 0.802797 0.530267
vt 0.821548 0.550116
vt 0.793531 0.657934
vt 0.802459 0.636136
vt 0.821548 0.634792
vt 0.808463 0.656882
vt 0.788054 0.615981
vt 0.801475 0.615036
vt 0.796204 0.594238
vt 0.813454 0.593024
vt 0.776346 0.574468
vt 0.785631 0.573814
vt 0.713877 0.805349
vt 0.713877 0.819258
vt 0.709675 0.819258
vt 0.709675 0.805349
vt 0.713877 0.833167
vt 0.709675 0.833167
vt 0.713877 0.847076
vt 0.709675 0.847076
vt 0.713877 0.860985
vt 0.709675 0.860985
vt 0.670165 0.888804
vt 0.660346 0.874894
vt 0.705474 0.874894
vt 0.705474 0.888804
vt 0.673733 0.860985
vt 0.705474 0.860985
vt 0.664689 0.847076
vt 0.705474 0.847076
vt 0.683500 0.833167
vt 0.705474 0.833167
vt 0.891485 0.657522
vt 0.893286 0.657522
vt 0.893286 0.684798
vt 0.891485 0.684798
vt 0.819502 0.726988
vt 0.823263 0.722710
vt 0.823263 0.679859
vt 0.819502 0.675581
vt 0.895087 0.657522
vt 0.895087 0.683772
vt 0.893286 0.683772
vt 0.893286 0.657522
vt 0.877007 0.697174
vt 0.877007 0.657522
vt 0.878808 0.657522
vt 0.878808 0.697174
vt 0.874895 0.657522
vt 0.874895 0.705968
vt 0.873094 0.705968
vt 0.873094 0.657522
vt 0.867966 0.657522
vt 0.869767 0.657522
vt 0.830833 0.614387
vt 0.866751 0.638085
vt 0.846542 0.636662
vt 0.821548 0.613733
vt 0.858657 0.595177
vt 0.841406 0.593963
vt 0.846677 0.573165
vt 0.833257 0.572220
vt 0.866751 0.553409
vt 0.847661 0.552065
vt 0.853665 0.531319
vt 0.838733 0.530267
vt 0.546966 0.916622
vt 0.546966 0.902713
vt 0.594738 0.902713
vt 0.568941 0.916622
vt 0.546966 0.930531
vt 0.587752 0.930531
vt 0.546966 0.944440
vt 0.578708 0.944440
vt 0.546966 0.958350
vt 0.592095 0.958350
vt 0.546966 0.972259
vt 0.582276 0.972259
vt 0.546966 0.888804
vt 0.582276 0.888804
vt 0.611543 0.888804
vt 0.611543 0.918165
vt 0.607342 0.918165
vt 0.607342 0.888804
vt 0.886047 0.657522
vt 0.887262 0.672143
vt 0.883031 0.672143
vt 0.884246 0.657522
vt 0.847999 0.657934
vt 0.833067 0.656882
vt 0.705474 0.819258
vt 0.705474 0.805349
vt 0.709675 0.805349
vt 0.709675 0.819258
vt 0.631697 0.819258
vt 0.617512 0.805349
vt 0.657702 0.805349
vt 0.657702 0.819258
vt 0.603141 0.888804
vt 0.603141 0.922223
vt 0.598940 0.922223
vt 0.598940 0.888804
vt 0.780577 0.667757
vt 0.781637 0.657934
vt 0.783748 0.657934
vt 0.784808 0.667757
vt 0.909398 0.637212
vt 0.894372 0.657522
vt 0.884303 0.656954
vt 0.902877 0.636844
vt 0.898912 0.530836
vt 0.909398 0.552584
vt 0.902125 0.552174
vt 0.888843 0.530267
vt 0.893312 0.572834
vt 0.882228 0.572208
vt 0.902912 0.594532
vt 0.894402 0.594052
vt 0.880616 0.614432
vt 0.866751 0.613649
vt 0.617512 0.888804
vt 0.628688 0.874894
vt 0.657702 0.874894
vt 0.657702 0.888804
vt 0.613451 0.860985
vt 0.657702 0.860985
vt 0.623745 0.847076
vt 0.657702 0.847076
vt 0.602334 0.833167
vt 0.657702 0.833167
vt 0.705474 0.888804
vt 0.705474 0.874894
vt 0.709675 0.874894
vt 0.709675 0.888804
vt 0.705474 0.860985
vt 0.709675 0.860985
vt 0.705474 0.847076
vt 0.709675 0.847076
vt 0.705474 0.833167
vt 0.709675 0.833167
vt 0.883031 0.688211
vt 0.880919 0.688211
vt 0.880919 0.657522
vt 0.883031 0.657522
vt 0.870982 0.657522
vt 0.873094 0.657522
vt 0.873094 0.705968
vt 0.870982 0.705968
vt 0.874895 0.657522
vt 0.877007 0.657522
vt 0.877007 0.697082
vt 0.874895 0.697082
vt 0.889374 0.657522
vt 0.891485 0.657522
vt 0.891485 0.683772
vt 0.889374 0.683772
vt 0.878808 0.657522
vt 0.880919 0.657522
vt 0.880919 0.689504
vt 0.878808 0.689504
vt 0.889374 0.657522
vt 0.889374 0.684798
vt 0.887262 0.684798
vt 0.887262 0.657522
vt 0.909398 0.574140
vt 0.945525 0.550945
vt 0.952046 0.550577
vt 0.923263 0.573357
vt 0.937050 0.593737
vt 0.945560 0.593257
vt 0.924875 0.615581
vt 0.935960 0.614955
vt 0.944772 0.635616
vt 0.952046 0.635205
vt 0.931491 0.657522
vt 0.941560 0.656954
vt 0.546966 0.833167
vt 0.546966 0.819258
vt 0.572972 0.819258
vt 0.602334 0.833167
vt 0.546966 0.847076
vt 0.580924 0.847076
vt 0.546966 0.860985
vt 0.591218 0.860985
vt 0.546966 0.874894
vt 0.575981 0.874894
vt 0.546966 0.888804
vt 0.587156 0.888804
vt 0.546966 0.805349
vt 0.587156 0.805349
vt 0.594738 0.922223
vt 0.594738 0.888804
vt 0.598940 0.888804
vt 0.598940 0.922223
vt 0.779517 0.657934
vt 0.780577 0.667922
vt 0.776346 0.667922
vt 0.777406 0.657934
vt 0.926950 0.530836
vt 0.937019 0.530267
vn 1.0000 0.0000 0.0000
vn -1.0000 0.0000 0.0000
vn -0.1951 -0.0000 -0.9808
vn -0.5556 -0.0000 -0.8315
vn -0.8315 0.0000 -0.5556
vn -0.9808 0.0000 -0.1951
vn -0.1951 0.0000 0.9808
vn -0.5556 0.0000 0.8315
vn -0.8315 -0.0000 0.5556
vn -0.9808 0.0000 0.1951
vn 0.1951 -0.0000 -0.9808
vn 0.5556 -0.0000 -0.8315
vn 0.8315 0.0000 -0.5556
vn 0.9808 0.0000 -0.1951
vn 0.0000 0.0000 -1.0000
vn 0.1951 0.0000 0.9808
vn 0.5556 -0.0000 0.8315
vn 0.8315 -0.0000 0.5556
vn 0.9808 0.0000 0.1951
vn 0.0000 0.0000 1.0000
vn 0.0000 1.0000 0.0000
vn 0.0000 -1.0000 0.0000
vn -0.0480 -0.9986 0.0224
vn -0.0456 -0.9988 -0.0168
vn -0.0427 -0.9989 0.0215
vn -0.0397 -0.9991 -0.0135
vn -0.0342 -0.9991 0.0241
vn -0.0379 -0.9986 -0.0367
vn -0.0379 0.9986 -0.0367
vn -0.0342 0.9991 0.0241
vn -0.0397 0.9991 -0.0135
vn -0.0427 0.9989 0.0215
vn -0.0456 0.9988 -0.0168
vn -0.0480 0.9986 0.0224
vn 0.0398 0.9990 -0.0212
vn 0.0423 0.9989 0.0177
vn 0.0471 0.9985 -0.0288
vn 0.0529 0.9983 0.0226
vn 0.0537 0.9983 -0.0241
vn 0.0447 0.9984 0.0334
vn 0.0447 -0.9984 0.0334
vn 0.0537 -0.9983 -0.0241
vn 0.0529 -0.9983 0.0226
vn 0.0471 -0.9985 -0.0288
vn 0.0423 -0.9989 0.0177
vn 0.0398 -0.9990 -0.0212
usemtl Material
s off
f 1/1/1 32/2/1 36/3/1 22/4/1
f 11/5/2 17/6/2 26/7/2 7/8/2
f 6/9/3 12/10/3 15/11/3 8/12/3
f 8/12/4 15/11/4 14/13/4 9/14/4
f 9/14/5 14/15/5 13/16/5 10/17/5
f 10/17/6 13/16/6 11/5/6 7/8/6
f 16/18/7 27/19/7 30/20/7 18/21/7
f 18/21/8 30/20/8 29/22/8 19/23/8
f 19/24/9 29/25/9 28/26/9 20/27/9
f 20/27/10 28/26/10 26/7/10 17/6/10
f 21/28/11 2/29/11 5/30/11 23/31/11
f 23/31/12 5/30/12 4/32/12 24/33/12
f 24/34/13 4/35/13 3/36/13 25/37/13
f 25/37/14 3/36/14 1/1/14 22/4/14
f 6/9/15 2/29/15 21/28/15 12/10/15
f 31/38/16 37/39/16 40/40/16 33/41/16
f 33/41/17 40/40/17 39/42/17 34/43/17
f 34/44/18 39/45/18 38/46/18 35/47/18
f 35/47/19 38/46/19 36/3/19 32/2/19
f 31/38/20 27/19/20 16/18/20 37/39/20
f 41/48/2 62/49/2 76/50/2 72/51/2
f 51/52/1 47/53/1 66/54/1 57/55/1
f 46/56/16 48/57/16 55/58/16 52/59/16
f 48/57/17 49/60/17 54/61/17 55/58/17
f 49/62/18 50/63/18 53/64/18 54/65/18
f 50/63/19 47/53/19 51/52/19 53/64/19
f 56/66/11 58/67/11 70/68/11 67/69/11
f 58/67/12 59/70/12 69/71/12 70/68/12
f 59/72/13 60/73/13 68/74/13 69/75/13
f 60/73/14 57/55/14 66/54/14 68/74/14
f 61/76/7 63/77/7 45/78/7 42/79/7
f 63/77/8 64/80/8 44/81/8 45/78/8
f 64/82/9 65/83/9 43/84/9 44/81/9
f 65/83/10 62/49/10 41/48/10 43/84/10
f 46/56/20 52/59/20 61/76/20 42/79/20
f 71/85/3 73/86/3 80/87/3 77/88/3
f 73/86/4 74/89/4 79/90/4 80/87/4
f 74/91/5 75/92/5 78/93/5 79/94/5
f 75/92/6 72/51/6 76/50/6 78/93/6
f 71/85/15 77/88/15 56/66/15 67/69/15
f 6/95/21 8/96/21 48/97/21 46/98/21
f 15/99/22 12/100/22 52/101/22 55/102/22
f 8/96/21 9/103/21 49/104/21 48/97/21
f 14/105/22 15/99/22 55/102/22 54/106/22
f 9/103/21 10/107/21 50/108/21 49/104/21
f 13/109/22 14/105/22 54/106/22 53/110/22
f 10/107/21 7/111/21 47/112/21 50/108/21
f 11/113/22 13/109/22 53/110/22 51/114/22
f 16/115/22 18/116/22 58/117/22 56/118/22
f 30/119/21 27/120/21 67/121/21 70/122/21
f 18/116/22 19/123/22 59/124/22 58/117/22
f 29/125/21 30/119/21 70/122/21 69/126/21
f 19/123/22 20/127/22 60/128/22 59/124/22
f 28/129/21 29/125/21 69/126/21 68/130/21
f 20/127/22 17/131/22 57/132/22 60/128/22
f 26/133/21 28/129/21 68/130/21 66/134/21
f 21/135/22 23/136/22 63/137/22 61/138/22
f 5/139/21 2/140/21 42/141/21 45/142/21
f 23/136/22 24/143/22 64/144/22 63/137/22
f 4/145/21 5/139/21 45/142/21 44/146/21
f 24/143/22 25/147/22 65/148/22 64/144/22
f 3/149/21 4/145/21 44/146/21 43/150/21
f 25/147/22 22/151/22 62/152/22 65/148/22
f 1/153/21 3/149/21 43/150/21 41/154/21
f 2/140/21 6/95/21 46/98/21 42/141/21
f 12/100/22 21/135/22 61/138/22 52/101/22
f 17/131/22 11/113/22 51/114/22 57/132/22
f 7/111/21 26/133/21 66/134/21 47/112/21
f 31/155/21 33/156/21 73/157/21 71/158/21
f 40/159/22 37/160/22 77/161/22 80/162/22
f 33/156/21 34/163/21 74/164/21 73/157/21
f 39/165/22 40/159/22 80/162/22 79/166/22
f 34/163/21 35/167/21 75/168/21 74/164/21
f 38/169/22 39/165/22 79/166/22 78/170/22
f 35/167/21 32/171/21 72/172/21 75/168/21
f 36/173/22 38/169/22 78/170/22 76/174/22
f 27/120/21 31/155/21 71/158/21 67/121/21
f 37/160/22 16/115/22 56/118/22 77/161/22
f 32/171/21 1/153/21 41/154/21 72/172/21
f 22/151/22 36/173/22 76/174/22 62/152/22
f 122/175/21 109/176/21 84/177/21 89/178/21
f 89/179/1 84/180/1 82/181/1 94/182/1
f 111/183/15 83/184/15 81/185/15 110/186/15
f 109/187/20 86/188/20 88/189/20 112/190/20
f 117/191/23 112/192/23 88/193/23 99/194/23
f 110/195/24 113/196/24 103/197/24 87/198/24
f 113/196/25 114/199/25 102/200/25 103/197/25
f 114/199/26 115/201/26 101/202/26 102/200/26
f 115/201/27 116/203/27 100/204/27 101/202/27
f 116/203/28 117/191/28 99/194/28 100/204/28
f 83/205/1 93/206/1 98/207/1 81/208/1
f 93/206/1 92/209/1 97/210/1 98/207/1
f 92/209/1 91/211/1 96/212/1 97/210/1
f 91/211/1 90/213/1 95/214/1 96/212/1
f 90/213/1 89/179/1 94/182/1 95/214/1
f 111/215/21 118/216/21 93/217/21 83/218/21
f 118/216/21 119/219/21 92/220/21 93/217/21
f 119/219/21 120/221/21 91/222/21 92/220/21
f 120/221/21 121/223/21 90/224/21 91/222/21
f 121/223/21 122/175/21 89/178/21 90/224/21
f 85/225/2 87/226/2 103/227/2 108/228/2
f 103/229/2 102/230/2 107/231/2 108/232/2
f 102/233/2 101/234/2 106/235/2 107/236/2
f 101/237/2 100/238/2 105/239/2 106/240/2
f 100/241/2 99/242/2 104/243/2 105/244/2
f 86/188/2 104/245/2 99/246/2 88/189/2
f 105/247/29 104/248/29 122/249/29 121/250/29
f 106/251/30 105/247/30 121/250/30 120/252/30
f 107/253/31 106/251/31 120/252/31 119/254/31
f 108/255/32 107/253/32 119/254/32 118/256/32
f 85/257/33 108/255/33 118/256/33 111/258/33
f 95/259/22 94/260/22 117/261/22 116/262/22
f 96/263/22 95/259/22 116/262/22 115/264/22
f 97/265/22 96/263/22 115/264/22 114/266/22
f 98/267/22 97/265/22 114/266/22 113/268/22
f 81/269/22 98/267/22 113/268/22 110/270/22
f 94/260/22 82/271/22 112/272/22 117/261/22
f 84/273/20 109/274/20 112/275/20 82/276/20
f 85/277/15 111/278/15 110/279/15 87/280/15
f 104/248/34 86/281/34 109/282/34 122/249/34
f 135/283/2 124/284/2 126/285/2 136/286/2
f 164/287/22 152/288/22 124/289/22 135/290/22
f 153/291/20 126/292/20 124/293/20 152/294/20
f 151/295/15 127/296/15 129/297/15 154/298/15
f 159/299/35 153/300/35 128/301/35 146/302/35
f 151/303/36 155/304/36 150/305/36 127/306/36
f 155/304/37 156/307/37 149/308/37 150/305/37
f 156/307/38 157/309/38 148/310/38 149/308/38
f 157/309/39 158/311/39 147/312/39 148/310/39
f 158/311/40 159/299/40 146/302/40 147/312/40
f 154/313/22 160/314/22 131/315/22 123/316/22
f 160/314/22 161/317/22 132/318/22 131/315/22
f 161/317/22 162/319/22 133/320/22 132/318/22
f 162/319/22 163/321/22 134/322/22 133/320/22
f 163/321/22 164/287/22 135/290/22 134/322/22
f 123/323/2 131/324/2 140/325/2 125/326/2
f 131/324/2 132/327/2 139/328/2 140/325/2
f 132/327/2 133/329/2 138/330/2 139/328/2
f 133/329/2 134/331/2 137/332/2 138/330/2
f 134/331/2 135/283/2 136/286/2 137/332/2
f 128/333/1 130/334/1 141/335/1 146/336/1
f 142/337/1 147/338/1 146/339/1 141/340/1
f 143/341/1 148/342/1 147/343/1 142/344/1
f 144/345/1 149/346/1 148/347/1 143/348/1
f 145/349/1 150/350/1 149/351/1 144/352/1
f 127/353/1 150/354/1 145/355/1 129/356/1
f 142/357/41 141/358/41 164/359/41 163/360/41
f 143/361/42 142/357/42 163/360/42 162/362/42
f 144/363/43 143/361/43 162/362/43 161/364/43
f 145/365/44 144/363/44 161/364/44 160/366/44
f 129/367/45 145/365/45 160/366/45 154/368/45
f 137/369/21 136/370/21 159/371/21 158/372/21
f 138/373/21 137/369/21 158/372/21 157/374/21
f 139/375/21 138/373/21 157/374/21 156/376/21
f 140/377/21 139/375/21 156/376/21 155/378/21
f 125/379/21 140/377/21 155/378/21 151/380/21
f 136/370/21 126/381/21 153/382/21 159/371/21
f 125/383/15 151/384/15 154/385/15 123/386/15
f 128/387/20 153/388/20 152/389/20 130/390/20
f 141/358/46 130/391/46 152/392/46 164/359/46
