# Blender v2.80 (sub 75) OBJ File: 'Pickups.blend'
# www.blender.org
mtllib SpeedUp.mtl
o SpeedUp
v 0.355411 0.841682 0.254474
v 0.263492 0.841682 0.346392
v 0.348414 0.841682 0.289649
v 0.328488 0.841682 0.319469
v 0.298668 0.841682 0.339395
v -0.252671 0.841682 0.346392
v -0.344589 0.841682 0.254474
v -0.287847 0.841682 0.339395
v -0.317667 0.841682 0.319469
v -0.337593 0.841682 0.289649
v -0.344589 0.981682 0.254474
v -0.252671 0.981682 0.346392
v -0.337593 0.981682 0.289649
v -0.317667 0.981682 0.319469
v -0.287847 0.981682 0.339395
v -0.252671 0.981682 -0.353608
v -0.344589 0.981682 -0.261690
v -0.287847 0.981682 -0.346611
v -0.317667 0.981682 -0.326686
v -0.337593 0.981682 -0.296866
v 0.263492 0.981682 0.346392
v 0.355411 0.981682 0.254474
v 0.298668 0.981682 0.339395
v 0.328488 0.981682 0.319469
v 0.348414 0.981682 0.289649
v -0.344589 0.841682 -0.261690
v -0.252671 0.841682 -0.353608
v -0.337593 0.841682 -0.296866
v -0.317667 0.841682 -0.326686
v -0.287847 0.841682 -0.346611
v 0.248403 0.841682 -0.353608
v 0.355411 0.841682 -0.246601
v 0.289353 0.841682 -0.345463
v 0.324069 0.841682 -0.322267
v 0.347265 0.841682 -0.287551
v 0.355411 0.981682 -0.246601
v 0.248403 0.981682 -0.353608
v 0.347265 0.981682 -0.287551
v 0.324069 0.981682 -0.322267
v 0.289353 0.981682 -0.345463
v 0.289261 0.841682 0.247958
v 0.256977 0.841682 0.280242
v 0.286102 0.841682 0.263839
v 0.280797 0.841682 0.271778
v 0.272857 0.841682 0.277083
v -0.246156 0.841682 0.280242
v -0.278439 0.841682 0.247958
v -0.262036 0.841682 0.277083
v -0.269976 0.841682 0.271778
v -0.275281 0.841682 0.263839
v -0.278439 0.981682 0.247958
v -0.246156 0.981682 0.280242
v -0.275281 0.981682 0.263839
v -0.269976 0.981682 0.271778
v -0.262036 0.981682 0.277083
v -0.246156 0.981682 -0.287458
v -0.278439 0.981682 -0.255175
v -0.262036 0.981682 -0.284300
v -0.269976 0.981682 -0.278995
v -0.275281 0.981682 -0.271055
v 0.256977 0.981682 0.280242
v 0.289261 0.981682 0.247958
v 0.272857 0.981682 0.277083
v 0.280797 0.981682 0.271778
v 0.286102 0.981682 0.263839
v -0.278439 0.841682 -0.255175
v -0.246156 0.841682 -0.287458
v -0.275281 0.841682 -0.271055
v -0.269976 0.841682 -0.278995
v -0.262036 0.841682 -0.284300
v 0.241888 0.841682 -0.287458
v 0.289261 0.841682 -0.240086
v 0.263543 0.841682 -0.283151
v 0.276377 0.841682 -0.274575
v 0.284953 0.841682 -0.261741
v 0.289261 0.981682 -0.240086
v 0.241888 0.981682 -0.287458
v 0.284953 0.981682 -0.261741
v 0.276377 0.981682 -0.274575
v 0.263543 0.981682 -0.283151
v -0.298524 0.914835 0.291685
v -0.298524 0.914835 -0.305363
v -0.298524 0.908530 0.291685
v -0.298524 0.908530 -0.305363
v 0.298524 0.914835 0.291685
v 0.298524 0.914835 -0.305363
v 0.298524 0.908530 0.291685
v 0.298524 0.908530 -0.305363
v -0.205682 0.958875 0.186696
v 0.076103 0.958875 0.001881
v -0.205682 0.958875 -0.182933
v -0.032823 0.934887 0.186696
v 0.248962 0.934887 0.001881
v -0.032823 0.934887 -0.182933
v 0.228545 0.858940 0.186696
v -0.053240 0.858940 0.001881
v 0.228545 0.858940 -0.182933
v 0.055687 0.882928 0.186696
v -0.226098 0.882928 0.001881
v 0.055687 0.882928 -0.182933
v -0.150547 0.958875 -0.080836
v -0.150547 0.958875 0.084599
v -0.024428 0.958875 0.001881
v 0.022312 0.934887 0.084599
v 0.022312 0.934887 -0.080836
v 0.148431 0.934887 0.001881
v 0.173411 0.858940 0.084599
v 0.173411 0.858940 -0.080836
v 0.047291 0.858940 0.001881
v 0.000552 0.882928 0.084599
v 0.000552 0.882928 -0.080836
v -0.125567 0.882928 0.001881
v -0.205682 0.934725 0.186696
v 0.076103 0.934725 0.001881
v -0.205682 0.934725 -0.182933
v -0.032823 0.910737 0.186696
v 0.248962 0.910737 0.001881
v -0.032823 0.910737 -0.182933
v 0.228545 0.883090 0.186696
v -0.053240 0.883090 0.001881
v 0.228545 0.883090 -0.182933
v 0.055687 0.907078 0.186696
v -0.226098 0.907078 0.001881
v 0.055687 0.907078 -0.182933
v -0.150547 0.934725 -0.080836
v -0.150547 0.934725 0.084599
v -0.024428 0.934725 0.001881
v 0.022312 0.910737 0.084599
v 0.022312 0.910737 -0.080836
v 0.148431 0.910737 0.001881
v 0.173411 0.883090 0.084599
v 0.173411 0.883090 -0.080836
v 0.047291 0.883090 0.001881
v 0.000552 0.907078 0.084599
v 0.000552 0.907078 -0.080836
v -0.125567 0.907078 0.001881
vt 0.953543 0.833307
vt 0.953543 0.876109
vt 0.940256 0.876109
vt 0.940256 0.833307
vt 0.900393 0.877398
vt 0.900393 0.833307
vt 0.913681 0.833307
vt 0.913681 0.877398
vt 0.913681 0.877398
vt 0.926969 0.877398
vt 0.926969 0.880402
vt 0.913681 0.880402
vt 0.926969 0.882950
vt 0.913681 0.882950
vt 0.900393 0.882950
vt 0.900393 0.880402
vt 0.913681 0.880402
vt 0.926969 0.877020
vt 0.940256 0.877020
vt 0.940256 0.880025
vt 0.926969 0.880025
vt 0.940256 0.882572
vt 0.926969 0.882572
vt 0.900393 0.827755
vt 0.913681 0.827755
vt 0.913681 0.830303
vt 0.900393 0.830303
vt 0.926969 0.833307
vt 0.913681 0.833307
vt 0.913681 0.830303
vt 0.926969 0.830303
vt 0.913681 0.827755
vt 0.926969 0.827755
vt 0.940256 0.827755
vt 0.953543 0.827755
vt 0.953543 0.830303
vt 0.940256 0.830303
vt 0.940256 0.834219
vt 0.926969 0.834219
vt 0.926969 0.830721
vt 0.940256 0.830721
vt 0.926969 0.827755
vt 0.940256 0.827755
vt 0.953543 0.882572
vt 0.940256 0.882572
vt 0.940256 0.879607
vt 0.953543 0.879607
vt 0.926969 0.927584
vt 0.913681 0.927584
vt 0.913681 0.885896
vt 0.926969 0.885896
vt 0.913681 0.927962
vt 0.900393 0.927962
vt 0.900393 0.884984
vt 0.913681 0.884984
vt 0.926969 0.884607
vt 0.926969 0.883250
vt 0.940256 0.883250
vt 0.940256 0.884607
vt 0.926969 0.882572
vt 0.940256 0.882572
vt 0.900393 0.929996
vt 0.900393 0.929318
vt 0.913681 0.929318
vt 0.913681 0.929996
vt 0.953543 0.927207
vt 0.953543 0.928563
vt 0.940256 0.928563
vt 0.940256 0.927207
vt 0.953543 0.929241
vt 0.940256 0.929241
vt 0.913681 0.882950
vt 0.913681 0.883628
vt 0.900393 0.883628
vt 0.900393 0.882950
vt 0.940256 0.927584
vt 0.940256 0.928941
vt 0.926969 0.928941
vt 0.926969 0.927584
vt 0.940256 0.929619
vt 0.926969 0.929619
vt 0.913681 0.929619
vt 0.913681 0.928941
vt 0.926969 0.928941
vt 0.940256 0.885518
vt 0.940256 0.883668
vt 0.953543 0.883668
vt 0.953543 0.885518
vt 0.940256 0.882572
vt 0.953543 0.882572
vt 0.926969 0.882950
vt 0.926969 0.884046
vt 0.913681 0.884046
vt 0.913681 0.882950
vt 0.900393 0.879697
vt 0.899729 0.882702
vt 0.893815 0.880497
vt 0.894115 0.879141
vt 0.899729 0.892396
vt 0.900393 0.895401
vt 0.894115 0.895957
vt 0.893815 0.894601
vt 0.897838 0.885249
vt 0.893312 0.881176
vt 0.897838 0.889849
vt 0.893312 0.893923
vt 0.895008 0.886951
vt 0.892558 0.881629
vt 0.895008 0.888147
vt 0.892558 0.893469
vt 0.891670 0.887549
vt 0.891051 0.881899
vt 0.891670 0.887549
vt 0.891051 0.893200
vt 0.833956 0.895401
vt 0.834620 0.892396
vt 0.840534 0.894601
vt 0.840235 0.895957
vt 0.834620 0.882702
vt 0.833956 0.879697
vt 0.840235 0.879141
vt 0.840534 0.880497
vt 0.836511 0.889849
vt 0.841038 0.893923
vt 0.836511 0.885249
vt 0.841038 0.881176
vt 0.839342 0.888147
vt 0.841791 0.893469
vt 0.839342 0.886951
vt 0.841791 0.881629
vt 0.842680 0.887549
vt 0.843299 0.893200
vt 0.842680 0.887549
vt 0.843299 0.881899
vt 0.900393 0.939491
vt 0.899729 0.942496
vt 0.893815 0.940291
vt 0.894115 0.938935
vt 0.899729 0.832602
vt 0.900393 0.835607
vt 0.894115 0.836164
vt 0.893815 0.834807
vt 0.897838 0.945043
vt 0.893312 0.940969
vt 0.897838 0.830055
vt 0.893312 0.834129
vt 0.895008 0.946745
vt 0.892558 0.941422
vt 0.895008 0.828353
vt 0.892558 0.833676
vt 0.891670 0.947343
vt 0.891051 0.941692
vt 0.891670 0.827755
vt 0.891051 0.833406
vt 0.833956 0.836896
vt 0.834729 0.833398
vt 0.840643 0.835603
vt 0.840235 0.837452
vt 0.834729 0.941700
vt 0.833956 0.938202
vt 0.840235 0.937646
vt 0.840643 0.939495
vt 0.836931 0.830433
vt 0.841457 0.834506
vt 0.836931 0.944665
vt 0.841457 0.940592
vt 0.840226 0.828451
vt 0.842675 0.833774
vt 0.840226 0.946647
vt 0.842675 0.941324
vt 0.844112 0.827755
vt 0.844731 0.833406
vt 0.844112 0.947343
vt 0.844731 0.941692
vt 0.613365 0.569012
vt 0.640867 0.569012
vt 0.640867 0.596514
vt 0.613365 0.596514
vt 0.640867 0.624016
vt 0.613365 0.624016
vt 0.640867 0.651518
vt 0.613365 0.651518
vt 0.640867 0.679020
vt 0.613365 0.679020
vt 0.585863 0.624016
vt 0.585863 0.651518
vt 0.668369 0.624016
vt 0.668369 0.651518
vt 0.562159 0.267550
vt 0.581158 0.279449
vt 0.588731 0.292839
vt 0.546281 0.266253
vt 0.581158 0.259668
vt 0.588731 0.248644
vt 0.643309 0.267550
vt 0.662308 0.279449
vt 0.669881 0.292839
vt 0.627431 0.266253
vt 0.662308 0.259668
vt 0.669881 0.248644
vt 0.643309 0.311745
vt 0.662308 0.323644
vt 0.669881 0.337034
vt 0.627431 0.310448
vt 0.662308 0.303864
vt 0.669881 0.292839
vt 0.577410 0.327925
vt 0.577410 0.306229
vt 0.584982 0.292839
vt 0.584982 0.341315
vt 0.560088 0.317077
vt 0.546281 0.317077
vt 0.619859 0.262033
vt 0.627431 0.248644
vt 0.627431 0.297120
vt 0.619859 0.283730
vt 0.602538 0.272882
vt 0.588731 0.272882
vt 0.581158 0.372120
vt 0.588731 0.385510
vt 0.546281 0.358924
vt 0.562159 0.360221
vt 0.581158 0.352340
vt 0.588731 0.341315
vt 0.619859 0.310510
vt 0.627431 0.297120
vt 0.627431 0.345596
vt 0.619859 0.332206
vt 0.602538 0.321358
vt 0.588731 0.321358
vt 0.658560 0.350424
vt 0.666132 0.337034
vt 0.666132 0.385510
vt 0.658560 0.372120
vt 0.641238 0.361272
vt 0.627431 0.361272
vt 0.621898 0.357495
vt 0.621898 0.345596
vt 0.625215 0.345596
vt 0.625215 0.357495
vt 0.605315 0.345596
vt 0.605315 0.365377
vt 0.601998 0.365377
vt 0.601998 0.345596
vt 0.595364 0.365377
vt 0.595364 0.345596
vt 0.598681 0.345596
vt 0.598681 0.365377
vt 0.672765 0.348933
vt 0.672765 0.337034
vt 0.676082 0.337034
vt 0.676082 0.348933
vt 0.618582 0.345596
vt 0.618582 0.365377
vt 0.615265 0.365377
vt 0.615265 0.345596
vt 0.608631 0.345596
vt 0.608631 0.365377
vt 0.605315 0.365377
vt 0.605315 0.345596
vt 0.672765 0.360832
vt 0.672765 0.348933
vt 0.676082 0.348933
vt 0.676082 0.360832
vt 0.621898 0.345596
vt 0.621898 0.365377
vt 0.618582 0.365377
vt 0.618582 0.345596
vt 0.611948 0.365377
vt 0.611948 0.345596
vt 0.615265 0.345596
vt 0.615265 0.365377
vt 0.621898 0.369394
vt 0.621898 0.357495
vt 0.625215 0.357495
vt 0.625215 0.369394
vt 0.611948 0.345596
vt 0.611948 0.365377
vt 0.608631 0.365377
vt 0.608631 0.345596
vt 0.601998 0.345596
vt 0.601998 0.365377
vt 0.598681 0.365377
vt 0.598681 0.345596
vt 0.669449 0.337034
vt 0.669449 0.363620
vt 0.666132 0.363620
vt 0.666132 0.337034
vt 0.673198 0.337034
vt 0.673198 0.292839
vt 0.676514 0.292839
vt 0.676514 0.337034
vt 0.584982 0.337034
vt 0.584982 0.292839
vt 0.588299 0.292839
vt 0.588299 0.337034
vt 0.672765 0.337034
vt 0.672765 0.363620
vt 0.669449 0.363620
vt 0.669449 0.337034
vt 0.676514 0.337034
vt 0.676514 0.292839
vt 0.679831 0.292839
vt 0.679831 0.337034
vt 0.673198 0.248644
vt 0.673198 0.292839
vt 0.592047 0.345596
vt 0.592047 0.372182
vt 0.588731 0.372182
vt 0.588731 0.345596
vt 0.669881 0.337034
vt 0.669881 0.292839
vt 0.673198 0.292839
vt 0.673198 0.337034
vt 0.679831 0.292839
vt 0.679831 0.248644
vt 0.683148 0.248644
vt 0.683148 0.292839
vt 0.592047 0.372182
vt 0.592047 0.345596
vt 0.595364 0.345596
vt 0.595364 0.372182
vt 0.673198 0.292839
vt 0.673198 0.248644
vt 0.676514 0.248644
vt 0.676514 0.292839
vt 0.676514 0.292839
vt 0.676514 0.248644
vt 0.679831 0.248644
vt 0.679831 0.292839
vn 1.0000 0.0000 0.0000
vn -1.0000 0.0000 0.0000
vn -0.1951 -0.0000 0.9808
vn -0.5556 0.0000 0.8315
vn -0.8315 0.0000 0.5556
vn -0.9808 0.0000 0.1951
vn -0.1951 0.0000 -0.9808
vn -0.5556 0.0000 -0.8315
vn -0.8315 -0.0000 -0.5556
vn -0.9808 0.0000 -0.1951
vn 0.1951 -0.0000 0.9808
vn 0.5556 0.0000 0.8315
vn 0.8315 0.0000 0.5556
vn 0.9808 0.0000 0.1951
vn 0.0000 -0.0000 1.0000
vn 0.1951 -0.0000 -0.9808
vn 0.5556 -0.0000 -0.8315
vn 0.8315 0.0000 -0.5556
vn 0.9808 0.0000 -0.1951
vn 0.0000 0.0000 -1.0000
vn 0.0000 -1.0000 0.0000
vn 0.0000 1.0000 -0.0000
vn -0.5484 0.0000 -0.8362
vn -0.5484 -0.0000 0.8362
vn 0.5484 0.0000 -0.8362
vn 0.5484 0.0000 0.8362
usemtl Material
s off
f 1/1/1 32/2/1 36/3/1 22/4/1
f 11/5/2 17/6/2 26/7/2 7/8/2
f 6/9/3 12/10/3 15/11/3 8/12/3
f 8/12/4 15/11/4 14/13/4 9/14/4
f 9/14/5 14/15/5 13/16/5 10/17/5
f 10/17/6 13/16/6 11/5/6 7/8/6
f 16/18/7 27/19/7 30/20/7 18/21/7
f 18/21/8 30/20/8 29/22/8 19/23/8
f 19/24/9 29/25/9 28/26/9 20/27/9
f 20/27/10 28/26/10 26/7/10 17/6/10
f 21/28/11 2/29/11 5/30/11 23/31/11
f 23/31/12 5/30/12 4/32/12 24/33/12
f 24/34/13 4/35/13 3/36/13 25/37/13
f 25/37/14 3/36/14 1/1/14 22/4/14
f 6/9/15 2/29/15 21/28/15 12/10/15
f 31/38/16 37/39/16 40/40/16 33/41/16
f 33/41/17 40/40/17 39/42/17 34/43/17
f 34/44/18 39/45/18 38/46/18 35/47/18
f 35/47/19 38/46/19 36/3/19 32/2/19
f 31/38/20 27/19/20 16/18/20 37/39/20
f 41/48/2 62/49/2 76/50/2 72/51/2
f 51/52/1 47/53/1 66/54/1 57/55/1
f 46/56/16 48/57/16 55/58/16 52/59/16
f 48/57/17 49/60/17 54/61/17 55/58/17
f 49/62/18 50/63/18 53/64/18 54/65/18
f 50/63/19 47/53/19 51/52/19 53/64/19
f 56/66/11 58/67/11 70/68/11 67/69/11
f 58/67/12 59/70/12 69/71/12 70/68/12
f 59/72/13 60/73/13 68/74/13 69/75/13
f 60/73/14 57/55/14 66/54/14 68/74/14
f 61/76/7 63/77/7 45/78/7 42/79/7
f 63/77/8 64/80/8 44/81/8 45/78/8
f 64/82/9 65/83/9 43/84/9 44/81/9
f 65/83/10 62/49/10 41/48/10 43/84/10
f 46/56/20 52/59/20 61/76/20 42/79/20
f 71/85/3 73/86/3 80/87/3 77/88/3
f 73/86/4 74/89/4 79/90/4 80/87/4
f 74/91/5 75/92/5 78/93/5 79/94/5
f 75/92/6 72/51/6 76/50/6 78/93/6
f 71/85/15 77/88/15 56/66/15 67/69/15
f 6/95/21 8/96/21 48/97/21 46/98/21
f 15/99/22 12/100/22 52/101/22 55/102/22
f 8/96/21 9/103/21 49/104/21 48/97/21
f 14/105/22 15/99/22 55/102/22 54/106/22
f 9/103/21 10/107/21 50/108/21 49/104/21
f 13/109/22 14/105/22 54/106/22 53/110/22
f 10/107/21 7/111/21 47/112/21 50/108/21
f 11/113/22 13/109/22 53/110/22 51/114/22
f 16/115/22 18/116/22 58/117/22 56/118/22
f 30/119/21 27/120/21 67/121/21 70/122/21
f 18/116/22 19/123/22 59/124/22 58/117/22
f 29/125/21 30/119/21 70/122/21 69/126/21
f 19/123/22 20/127/22 60/128/22 59/124/22
f 28/129/21 29/125/21 69/126/21 68/130/21
f 20/127/22 17/131/22 57/132/22 60/128/22
f 26/133/21 28/129/21 68/130/21 66/134/21
f 21/135/22 23/136/22 63/137/22 61/138/22
f 5/139/21 2/140/21 42/141/21 45/142/21
f 23/136/22 24/143/22 64/144/22 63/137/22
f 4/145/21 5/139/21 45/142/21 44/146/21
f 24/143/22 25/147/22 65/148/22 64/144/22
f 3/149/21 4/145/21 44/146/21 43/150/21
f 25/147/22 22/151/22 62/152/22 65/148/22
f 1/153/21 3/149/21 43/150/21 41/154/21
f 2/140/21 6/95/21 46/98/21 42/141/21
f 12/100/22 21/135/22 61/138/22 52/101/22
f 17/131/22 11/113/22 51/114/22 57/132/22
f 7/111/21 26/133/21 66/134/21 47/112/21
f 31/155/21 33/156/21 73/157/21 71/158/21
f 40/159/22 37/160/22 77/161/22 80/162/22
f 33/156/21 34/163/21 74/164/21 73/157/21
f 39/165/22 40/159/22 80/162/22 79/166/22
f 34/163/21 35/167/21 75/168/21 74/164/21
f 38/169/22 39/165/22 79/166/22 78/170/22
f 35/167/21 32/171/21 72/172/21 75/168/21
f 36/173/22 38/169/22 78/170/22 76/174/22
f 27/120/21 31/155/21 71/158/21 67/121/21
f 37/160/22 16/115/22 56/118/22 77/161/22
f 32/171/21 1/153/21 41/154/21 72/172/21
f 22/151/22 36/173/22 76/174/22 62/152/22
f 81/175/2 82/176/2 84/177/2 83/178/2
f 83/178/21 84/177/21 88/179/21 87/180/21
f 87/180/1 88/179/1 86/181/1 85/182/1
f 85/182/22 86/181/22 82/183/22 81/184/22
f 83/185/15 87/180/15 85/182/15 81/186/15
f 88/179/20 84/187/20 82/188/20 86/181/20
f 102/189/22 101/190/22 91/191/22 89/192/22
f 103/193/22 102/189/22 89/192/22 90/194/22
f 101/190/22 103/193/22 90/194/22 91/191/22
f 104/195/22 105/196/22 94/197/22 92/198/22
f 106/199/22 104/195/22 92/198/22 93/200/22
f 105/196/22 106/199/22 93/200/22 94/197/22
f 107/201/21 108/202/21 97/203/21 95/204/21
f 109/205/21 107/201/21 95/204/21 96/206/21
f 108/202/21 109/205/21 96/206/21 97/203/21
f 110/207/21 111/208/21 100/209/21 98/210/21
f 112/211/21 110/207/21 98/210/21 99/212/21
f 111/208/21 112/211/21 99/212/21 100/209/21
f 126/213/21 113/214/21 115/215/21 125/216/21
f 127/217/21 114/218/21 113/214/21 126/213/21
f 125/216/21 115/215/21 114/218/21 127/217/21
f 128/219/21 116/220/21 118/221/21 129/222/21
f 130/223/21 117/224/21 116/220/21 128/219/21
f 129/222/21 118/221/21 117/224/21 130/223/21
f 131/225/22 119/226/22 121/227/22 132/228/22
f 133/229/22 120/230/22 119/226/22 131/225/22
f 132/228/22 121/227/22 120/230/22 133/229/22
f 134/231/22 122/232/22 124/233/22 135/234/22
f 136/235/22 123/236/22 122/232/22 134/231/22
f 135/234/22 124/233/22 123/236/22 136/235/22
f 101/237/1 102/238/1 126/239/1 125/240/1
f 102/241/23 103/242/23 127/243/23 126/244/23
f 103/245/24 101/246/24 125/247/24 127/248/24
f 105/249/1 104/250/1 128/251/1 129/252/1
f 104/253/23 106/254/23 130/255/23 128/256/23
f 106/257/24 105/258/24 129/259/24 130/260/24
f 108/261/2 107/262/2 131/263/2 132/264/2
f 107/265/25 109/266/25 133/267/25 131/268/25
f 109/269/26 108/270/26 132/271/26 133/272/26
f 111/273/2 110/274/2 134/275/2 135/276/2
f 110/277/25 112/278/25 136/279/25 134/280/25
f 112/281/26 111/282/26 135/283/26 136/284/26
f 89/285/2 91/286/2 115/287/2 113/288/2
f 90/289/26 89/290/26 113/291/26 114/292/26
f 91/293/25 90/294/25 114/295/25 115/296/25
f 92/297/2 94/298/2 118/299/2 116/300/2
f 93/301/26 92/302/26 116/303/26 117/304/26
f 94/197/25 93/200/25 117/305/25 118/306/25
f 95/307/1 97/308/1 121/309/1 119/310/1
f 96/311/24 95/312/24 119/313/24 120/314/24
f 97/315/23 96/316/23 120/317/23 121/318/23
f 98/319/1 100/320/1 124/321/1 122/322/1
f 99/323/24 98/324/24 122/325/24 123/326/24
f 100/327/23 99/328/23 123/329/23 124/330/23
